<svg width="28" height="27" viewBox="0 0 28 27" fill="none" xmlns="http://www.w3.org/2000/svg">
<path d="M18.8398 15.7148C19.6602 14.4703 20.1414 12.9938 20.1414 11.4064C20.1414 6.97148 16.4172 3.375 11.8234 3.375C7.22422 3.375 3.5 6.97148 3.5 11.4064C3.5 15.8414 7.22422 19.4379 11.818 19.4379C13.4859 19.4379 15.0391 18.9633 16.3406 18.1512L16.718 17.898L22.657 23.625L24.5 21.8162L18.5664 16.0893L18.8398 15.7148ZM16.4828 6.91875C17.7242 8.11582 18.4078 9.7084 18.4078 11.4012C18.4078 13.0939 17.7242 14.6865 16.4828 15.8836C15.2414 17.0807 13.5898 17.7398 11.8344 17.7398C10.0789 17.7398 8.42734 17.0807 7.18594 15.8836C5.94453 14.6865 5.26094 13.0939 5.26094 11.4012C5.26094 9.7084 5.94453 8.11582 7.18594 6.91875C8.42734 5.72168 10.0789 5.0625 11.8344 5.0625C13.5898 5.0625 15.2414 5.72168 16.4828 6.91875Z" fill="#A5A5A5"/>
</svg>
